<svg xmlns="http://www.w3.org/2000/svg" xmlns:xlink="http://www.w3.org/1999/xlink" width="1366" height="803" viewBox="0 0 1366 803">
  <defs>
    <clipPath id="clip-Word_cloud_purple_2_1">
      <rect width="1366" height="803"/>
    </clipPath>
  </defs>
  <g id="Word_cloud_purple_2_1" data-name="Word cloud purple 2 – 1" clip-path="url(#clip-Word_cloud_purple_2_1)">
    <rect width="1366" height="803" fill="#553d9d"/>
    <path id="Path_136" data-name="Path 136" d="M-5000.705,18700.164s22.393,45.648,22.393,22.395-21.064-73.217,0-52.154c7.667,7.67,16.663,21.467,25.047,34.232,14.53,22.129,27.106,40.975,27.106,17.922,0-36.246-13.186-71.082-13.186-71.082" transform="translate(5025 -18602.311)" fill="none" stroke="#fcc50f" stroke-linecap="round" stroke-linejoin="round" stroke-width="11"/>
    <path id="Polygon_3" data-name="Polygon 3" d="M24.156,7.621a5,5,0,0,1,8.688,0l19.895,34.9A5,5,0,0,1,48.395,50H8.605a5,5,0,0,1-4.344-7.476Z" transform="translate(1118.633 148.598) rotate(-140)" fill="#dc5271"/>
    <path id="Polygon_4" data-name="Polygon 4" d="M28.929,7.071a10,10,0,0,1,14.142,0L64.929,28.929a10,10,0,0,1,0,14.142L43.071,64.929a10,10,0,0,1-14.142,0L7.071,43.071a10,10,0,0,1,0-14.142Z" transform="translate(287 25)" fill="#35c6ce"/>
    <g id="Group_471" data-name="Group 471">
      <rect id="Rectangle_273" data-name="Rectangle 273" width="1317" height="714" rx="60" transform="translate(24 23)" fill="none"/>
      <rect id="Rectangle_272" data-name="Rectangle 272" width="1366" height="768" fill="none"/>
      <path id="Path_135" data-name="Path 135" d="M-5000.706,18671.215s13.429-27.373,13.429-13.43-12.632,43.91,0,31.277c4.6-4.6,9.993-12.873,15.021-20.529,8.713-13.268,16.255-24.572,16.255-10.748,0,21.738-7.907,42.629-7.907,42.629" transform="translate(6307 -18085.289)" fill="none" stroke="#6ebf1d" stroke-linecap="round" stroke-linejoin="round" stroke-width="6"/>
      <path id="Polygon_1" data-name="Polygon 1" d="M28.929,7.071a10,10,0,0,1,14.142,0L64.929,28.929a10,10,0,0,1,0,14.142L43.071,64.929a10,10,0,0,1-14.142,0L7.071,43.071a10,10,0,0,1,0-14.142Z" transform="translate(0 264)" fill="#dc5271"/>
      <path id="Polygon_2" data-name="Polygon 2" d="M48.169,7.507a5,5,0,0,1,8.662,0L100.674,83.5A5,5,0,0,1,96.343,91H8.657a5,5,0,0,1-4.331-7.5Z" transform="translate(1183.63 107.656) rotate(-54)" fill="#ffc400"/>
      <path id="Polygon_5" data-name="Polygon 5" d="M34.663,7.562a5,5,0,0,1,8.675,0l30.368,52.95A5,5,0,0,1,69.368,68H8.632a5,5,0,0,1-4.337-7.488Z" transform="translate(24.302 592.027) rotate(-85)" fill="#268be5"/>
      <path id="Path_143" data-name="Path 143" d="M9.128,2.009a4,4,0,0,1,6.938,0l8.591,14.966a4,4,0,0,1-3.469,5.991H4.006A4,4,0,0,1,.537,16.974Z" transform="translate(495.871 649.574) rotate(-140)" fill="#81b83a"/>
      <path id="Polygon_13" data-name="Polygon 13" d="M34.663,7.562a5,5,0,0,1,8.675,0l30.368,52.95A5,5,0,0,1,69.368,68H8.632a5,5,0,0,1-4.337-7.488Z" transform="translate(1133.302 803.704) rotate(-85)" fill="#268be5"/>
      <path id="Polygon_14" data-name="Polygon 14" d="M28.929,7.071a10,10,0,0,1,14.142,0L64.929,28.929a10,10,0,0,1,0,14.142L43.071,64.929a10,10,0,0,1-14.142,0L7.071,43.071a10,10,0,0,1,0-14.142Z" transform="translate(1306 358)" fill="#dc5271"/>
    </g>
    <g id="Group_472" data-name="Group 472" transform="translate(37 494)">
      <path id="Path_135-2" data-name="Path 135" d="M-5000.706,18671.215s13.429-27.373,13.429-13.43-12.632,43.91,0,31.277c4.6-4.6,9.993-12.873,15.021-20.529,8.713-13.268,16.255-24.572,16.255-10.748,0,21.738-7.907,42.629-7.907,42.629" transform="translate(5866 -18439.705)" fill="none" stroke="#6ebf1d" stroke-linecap="round" stroke-linejoin="round" stroke-width="6"/>
      <path id="Polygon_1-2" data-name="Polygon 1" d="M28.929,7.071a10,10,0,0,1,14.142,0L64.929,28.929a10,10,0,0,1,0,14.142L43.071,64.929a10,10,0,0,1-14.142,0L7.071,43.071a10,10,0,0,1,0-14.142Z" transform="translate(521 182)" fill="#dc5271"/>
      <path id="Polygon_2-2" data-name="Polygon 2" d="M48.169,7.507a5,5,0,0,1,8.662,0L100.674,83.5A5,5,0,0,1,96.343,91H8.657a5,5,0,0,1-4.331-7.5Z" transform="translate(-73.37 197.656) rotate(-54)" fill="#ffc400"/>
      <path id="Polygon_5-2" data-name="Polygon 5" d="M34.663,7.562a5,5,0,0,1,8.675,0l30.368,52.95A5,5,0,0,1,69.368,68H8.632a5,5,0,0,1-4.337-7.488Z" transform="translate(189.302 259.668) rotate(-85)" fill="#268be5"/>
      <path id="Polygon_11" data-name="Polygon 11" d="M12.015,6.05a4,4,0,0,1,6.94,0l8.58,14.96A4,4,0,0,1,24.065,27H6.905a4,4,0,0,1-3.47-5.99Z" transform="translate(395.501 271.285) rotate(-140)" fill="#81b83a"/>
    </g>
    <path id="Polygon_12" data-name="Polygon 12" d="M24.156,7.621a5,5,0,0,1,8.688,0l19.895,34.9A5,5,0,0,1,48.395,50H8.605a5,5,0,0,1-4.344-7.476Z" transform="translate(1311.633 723.598) rotate(-140)" fill="#dc5271"/>
    <path id="Path_137" data-name="Path 137" d="M-3886.906,19223.2l-25.735-40.424-10.859,49.883-42.4-33.838v50.145l-40.907-33.352" transform="translate(5313 -18929.828)" fill="none" stroke="#e59cc6" stroke-linecap="round" stroke-linejoin="round" stroke-width="11"/>
    <path id="Path_155" data-name="Path 155" d="M-3886.906,19223.2l-25.735-40.424-10.859,49.883-42.4-33.838v50.145l-40.907-33.352" transform="translate(5000 -18555.828)" fill="none" stroke="#e59cc6" stroke-linecap="round" stroke-linejoin="round" stroke-width="11"/>
    <path id="Polygon_15" data-name="Polygon 15" d="M48.169,7.507a5,5,0,0,1,8.662,0L100.674,83.5A5,5,0,0,1,96.343,91H8.657a5,5,0,0,1-4.331-7.5Z" transform="matrix(-0.588, -0.809, 0.809, -0.588, -5.652, 513.145)" fill="#ffc400"/>
    <path id="Polygon_16" data-name="Polygon 16" d="M48.169,7.507a5,5,0,0,1,8.662,0L100.674,83.5A5,5,0,0,1,96.343,91H8.657a5,5,0,0,1-4.331-7.5Z" transform="matrix(-0.588, -0.809, 0.809, -0.588, 725.348, 798.145)" fill="#ffc400"/>
  </g>
</svg>
